<?xml version="1.0" standalone="no"?>
<!DOCTYPE svg PUBLIC "-//W3C//DTD SVG 20010904//EN"
 "http://www.w3.org/TR/2001/REC-SVG-20010904/DTD/svg10.dtd">
<svg version="1.0" xmlns="http://www.w3.org/2000/svg"
 width="260.000000pt" height="260.000000pt" viewBox="0 0 260.000000 260.000000"
 preserveAspectRatio="xMidYMid meet">
<metadata>
Created by potrace 1.14, written by Peter Selinger 2001-2017
</metadata>
<g transform="translate(0.000000,260.000000) scale(0.100000,-0.100000)"
fill="#000000" stroke="none">
<path d="M1276 2185 l-17 -55 -62 -1 c-61 0 -62 0 -37 -17 73 -50 74 -52 56
-112 -9 -29 -14 -55 -13 -57 2 -1 21 10 43 27 49 37 59 37 108 0 22 -17 41
-28 43 -27 1 2 -4 28 -13 57 -18 60 -17 62 56 112 25 17 24 17 -37 17 l-62 1
-17 55 c-10 30 -21 55 -24 55 -3 0 -14 -25 -24 -55z"/>
<path d="M770 2099 c0 -30 25 -57 263 -291 l262 -258 142 0 c149 0 173 -4 173
-26 0 -10 -15 -14 -60 -14 -43 0 -60 -4 -60 -13 0 -29 25 -37 116 -37 124 0
154 -19 180 -117 2 -7 13 -13 24 -13 16 0 20 7 20 30 0 65 -64 135 -134 147
-29 4 -36 10 -36 28 0 12 -9 30 -21 41 -18 16 -42 20 -174 24 l-154 5 -270
263 c-259 252 -271 262 -271 231z"/>
<path d="M1537 1892 c-187 -187 -235 -240 -225 -250 7 -7 17 -12 23 -12 6 0
111 100 233 223 179 180 222 228 222 250 0 15 -3 27 -8 27 -4 0 -114 -107
-245 -238z"/>
<path d="M770 1960 c0 -32 22 -57 315 -350 268 -269 314 -318 309 -337 -4 -13
-10 -23 -15 -23 -5 0 -144 135 -309 300 l-300 300 0 -37 c0 -37 13 -51 330
-368 l330 -330 0 58 c0 126 37 157 188 157 54 0 102 3 105 7 4 3 0 15 -10 25
-25 28 -188 26 -245 -3 l-41 -21 -328 328 c-320 320 -329 328 -329 294z"/>
<path d="M1597 1812 c-97 -97 -177 -181 -177 -185 0 -4 12 -7 28 -7 40 0 342
302 342 343 0 15 -3 27 -8 27 -4 0 -87 -80 -185 -178z"/>
<path d="M1666 1735 c-79 -77 -103 -107 -91 -111 31 -12 63 7 138 85 56 57 77
86 77 105 0 14 -4 26 -9 26 -5 0 -57 -47 -115 -105z"/>
<path d="M770 1670 c0 -33 22 -57 320 -355 255 -255 322 -317 330 -305 5 8 10
20 10 25 0 6 -148 159 -330 340 -321 321 -330 329 -330 295z"/>
<path d="M1721 1646 c-48 -49 -52 -56 -41 -76 12 -22 13 -22 61 26 35 35 49
56 49 76 0 15 -4 28 -8 28 -4 0 -32 -24 -61 -54z"/>
<path d="M1175 805 c-61 -22 -85 -55 -85 -121 0 -65 20 -101 67 -120 67 -28
183 -5 183 36 0 10 3 32 6 49 6 29 5 31 -24 31 -30 0 -31 -2 -34 -47 -2 -39
-8 -50 -29 -62 -56 -31 -114 25 -114 109 0 103 83 154 154 94 30 -25 31 -25
31 -5 0 39 -89 60 -155 36z"/>
<path d="M820 795 c0 -12 5 -13 26 -4 15 5 36 7 46 3 19 -6 20 -14 17 -125
l-4 -119 28 0 27 0 0 120 c0 133 4 141 60 122 24 -9 30 -8 30 4 0 11 -21 14
-115 14 -95 0 -115 -3 -115 -15z"/>
<path d="M1425 680 l0 -130 30 0 30 0 0 130 0 130 -30 0 -30 0 0 -130z"/>
<path d="M1585 680 l0 -131 29 3 c30 3 30 3 27 61 -3 67 13 81 61 54 27 -16
28 -16 28 7 0 22 -3 23 -45 18 l-45 -5 0 53 0 52 50 -4 c35 -2 50 1 50 10 0 8
-22 12 -77 12 l-78 0 0 -130z"/>
<path d="M410 395 c0 -25 4 -45 9 -45 5 0 11 20 13 45 2 31 -1 45 -9 45 -9 0
-13 -16 -13 -45z"/>
<path d="M550 395 c0 -25 5 -45 10 -45 6 0 10 20 10 45 0 25 -4 45 -10 45 -5
0 -10 -20 -10 -45z"/>
<path d="M617 414 c-6 -31 2 -64 14 -64 12 0 12 77 0 84 -5 3 -11 -6 -14 -20z"/>
<path d="M740 405 c0 -19 0 -38 -1 -42 0 -4 4 -9 10 -11 7 -2 11 14 11 42 0
25 -4 46 -10 46 -5 0 -10 -16 -10 -35z"/>
<path d="M984 424 c3 -9 9 -27 12 -40 7 -29 12 -30 30 -6 13 16 15 16 25 0 5
-10 14 -18 19 -18 16 0 11 23 -10 50 l-20 25 -6 -22 c-8 -30 -20 -29 -28 2 -4
14 -11 25 -17 25 -6 0 -8 -7 -5 -16z"/>
<path d="M1348 394 c5 -54 7 -53 15 4 3 28 1 42 -7 42 -7 0 -10 -16 -8 -46z"/>
<path d="M1486 425 c-9 -9 -16 -21 -16 -26 0 -17 20 -49 31 -49 6 0 6 7 -1 20
-8 14 -8 26 0 41 15 27 7 35 -14 14z"/>
<path d="M1657 434 c-11 -11 -8 -84 3 -84 5 0 12 10 15 23 7 25 -7 72 -18 61z"/>
<path d="M1720 395 c0 -25 5 -45 10 -45 6 0 10 20 10 45 0 25 -4 45 -10 45 -5
0 -10 -20 -10 -45z"/>
<path d="M1840 395 c0 -25 5 -45 10 -45 6 0 10 20 10 45 0 25 -4 45 -10 45 -5
0 -10 -20 -10 -45z"/>
<path d="M1990 395 c0 -25 4 -45 9 -45 5 0 11 20 13 45 2 31 -1 45 -9 45 -9 0
-13 -16 -13 -45z"/>
<path d="M2033 399 c-1 -21 2 -41 8 -45 16 -10 23 4 10 20 -8 10 -9 16 -1 21
14 9 13 32 -2 38 -9 3 -14 -8 -15 -34z"/>
<path d="M2156 424 c-4 -10 5 -26 24 -44 26 -24 30 -25 30 -9 0 10 -9 23 -21
29 -12 7 -18 18 -15 26 3 8 1 14 -3 14 -5 0 -12 -7 -15 -16z"/>
<path d="M1196 415 c-3 -8 -2 -15 2 -15 4 0 13 -14 19 -31 7 -17 17 -28 22
-24 7 4 4 20 -9 46 -23 44 -25 45 -34 24z"/>
</g>
</svg>
